<!-- icon666.com - MILLIONS vector ICONS FREE --><svg version="1.1" id="Capa_1" xmlns="http://www.w3.org/2000/svg" xmlns:xlink="http://www.w3.org/1999/xlink" x="0px" y="0px" viewBox="0 0 496 496" style="enable-background:new 0 0 496 496;" xml:space="preserve"><g><g><path d="M456,80h-40V0H80v80H40C17.944,80,0,97.944,0,120v256c0,22.056,17.944,40,40,40h152v16.84l-144,16V496h400v-47.16l-144-16 V416h152c22.056,0,40-17.944,40-40V120C496,97.944,478.056,80,456,80z M192,480H64v-16.84l128-14.224V480z M96,16h304v320H96V16z M288,480h-80v-64h80V480z M432,463.16V480H304v-31.064L432,463.16z M480,376c0,13.232-10.768,24-24,24H40 c-13.232,0-24-10.768-24-24V120c0-13.232,10.768-24,24-24h40v16H48c-8.824,0-16,7.176-16,16v240c0,8.824,7.176,16,16,16h368v-16 H48V128h32v224h336V128h32v240h-16v16h16c8.824,0,16-7.176,16-16V128c0-8.824-7.176-16-16-16h-32V96h40c13.232,0,24,10.768,24,24 V376z" fill="#000000" style="fill: rgb(32, 145, 249);"></path></g></g><g><g><path d="M367.736,281.944c-5.792-20.256-22.216-35.4-42.864-39.528L280,233.44v-2.104c14.8-8.592,25.824-22.928,30.048-39.952 C324.808,188.544,336,175.576,336,160v-40c0-48.52-39.48-88-88-88c-48.52,0-88,39.48-88,88v40 c0,15.576,11.192,28.544,25.952,31.392c4.224,17.024,15.248,31.36,30.048,39.952v2.104l-44.872,8.976 c-20.648,4.128-37.072,19.272-42.856,39.52L117.392,320h261.216L367.736,281.944z M312,173.776v-27.544 c4.76,2.776,8,7.88,8,13.776S316.76,171,312,173.776z M184,173.768c-4.76-2.768-8-7.872-8-13.768s3.24-11,8-13.776V173.768z M176,132.448V120c0-39.696,32.296-72,72-72c39.704,0,72,32.304,72,72v12.448c-4.728-2.752-10.144-4.448-16-4.448 c-18.496,0-35.888-7.2-48.976-20.296l-7.024-7l-7.032,7.008C227.888,120.8,210.496,128,192,128 C186.144,128,180.728,129.696,176,132.448z M200,176v-32.376c17.824-1.648,34.488-8.776,48-20.592 c13.52,11.808,30.176,18.944,48,20.592V176c0,26.472-21.528,48-48,48S200,202.472,200,176z M264,237.896V240 c0,8.824-7.176,16-16,16c-8.824,0-16-7.176-16-16v-2.104c5.128,1.328,10.464,2.104,16,2.104S258.872,239.224,264,237.896z M318.24,304l-6.488-25.944l-15.512,3.88L301.76,304H194.24l5.512-22.056l-15.512-3.88L177.76,304h-39.144l5.048-17.664 c4.136-14.464,15.856-25.288,30.608-28.232l43.32-8.664C221.64,262.456,233.664,272,248,272s26.36-9.544,30.416-22.56l43.32,8.664 c14.752,2.952,26.48,13.768,30.608,28.232L357.392,304H318.24z" fill="#000000" style="fill: rgb(32, 145, 249);"></path></g></g><g><g><rect x="112" y="32" width="16" height="16" fill="#000000" style="fill: rgb(32, 145, 249);"></rect></g></g><g><g><rect x="144" y="32" width="16" height="16" fill="#000000" style="fill: rgb(32, 145, 249);"></rect></g></g><g><g><rect x="368" y="32" width="16" height="16" fill="#000000" style="fill: rgb(32, 145, 249);"></rect></g></g><g><g><rect x="336" y="32" width="16" height="16" fill="#000000" style="fill: rgb(32, 145, 249);"></rect></g></g></svg>